HIERARCHY
ROOT Bip001_Pelvis
{
  OFFSET 34.4345 95.6767 -26.8758
  CHANNELS 6 Xposition Yposition Zposition Zrotation Xrotation Yrotation
  JOINT Bip001_Spine
  {
    OFFSET 1.4188e-005 10.2191 -0.0116013
    CHANNELS 3 Zrotation Xrotation Yrotation
    JOINT Bip001_L_Thigh
    {
      OFFSET 11.0458 -10.2192 0.0116197
      CHANNELS 3 Zrotation Xrotation Yrotation
      JOINT Bip001_L_Calf
      {
        OFFSET -0.707118 -44.0221 0.360014
        CHANNELS 3 Zrotation Xrotation Yrotation
        JOINT Bip001_L_Foot
        {
          OFFSET -0.651902 -40.5938 -3.56146
          CHANNELS 3 Zrotation Xrotation Yrotation
          JOINT Bip001_L_Toe0
          {
            OFFSET 0.0530839 -10.2181 13.1504
            CHANNELS 3 Zrotation Xrotation Yrotation
            End Site
            {
              OFFSET -1.02532e-005 0 7.55606
            }
          }
        }
      }
    }
    JOINT Bip001_R_Thigh
    {
      OFFSET -11.0458 -10.2191 0.0115893
      CHANNELS 3 Zrotation Xrotation Yrotation
      JOINT Bip001_R_Calf
      {
        OFFSET 0.706994 -44.0221 0.35984
        CHANNELS 3 Zrotation Xrotation Yrotation
        JOINT Bip001_R_Foot
        {
          OFFSET 0.651786 -40.5938 -3.5613
          CHANNELS 3 Zrotation Xrotation Yrotation
          JOINT Bip001_R_Toe0
          {
            OFFSET -0.0531479 -10.2181 13.1504
            CHANNELS 3 Zrotation Xrotation Yrotation
            End Site
            {
              OFFSET -1.02894e-005 0 7.55606
            }
          }
        }
      }
    }
    JOINT Bip001_Spine1
    {
      OFFSET 1.87041e-005 14.5736 1.08638
      CHANNELS 3 Zrotation Xrotation Yrotation
      JOINT Bip001_Spine2
      {
        OFFSET 2.24614e-005 14.5058 -1.69078
        CHANNELS 3 Zrotation Xrotation Yrotation
        JOINT Bip001_Neck
        {
          OFFSET 2.20278e-005 15.3945 -0.489414
          CHANNELS 3 Zrotation Xrotation Yrotation
          JOINT Bip001_L_Clavicle
          {
            OFFSET 6.06036 -0.000579998 0.00836775
            CHANNELS 3 Zrotation Xrotation Yrotation
            JOINT Bip001_L_UpperArm
            {
              OFFSET 11.5509 -0.0600302 0.00193952
              CHANNELS 3 Zrotation Xrotation Yrotation
              JOINT Bip001_L_Forearm
              {
                OFFSET 25.9523 0.0806089 -2.15551
                CHANNELS 3 Zrotation Xrotation Yrotation
                JOINT Bip001_L_Hand
                {
                  OFFSET 32.2475 0.153767 1.63968
                  CHANNELS 3 Zrotation Xrotation Yrotation
                  JOINT Bip001_L_Finger0
                  {
                    OFFSET 6.04639 -2.20976 5.90322
                    CHANNELS 3 Zrotation Xrotation Yrotation
                    End Site
                    {
                      OFFSET 4.22375 -1.43895 0.606485
                    }
                  }
                  JOINT Bip001_L_Finger1
                  {
                    OFFSET 11.0826 -0.704819 -0.198153
                    CHANNELS 3 Zrotation Xrotation Yrotation
                    End Site
                    {
                      OFFSET 6.20027 -0.397518 -0.0787166
                    }
                  }
                }
              }
            }
          }
          JOINT Bip001_R_Clavicle
          {
            OFFSET -6.06037 -0.000563197 0.00835105
            CHANNELS 3 Zrotation Xrotation Yrotation
            JOINT Bip001_R_UpperArm
            {
              OFFSET -11.5509 -0.0599978 0.00190698
              CHANNELS 3 Zrotation Xrotation Yrotation
              JOINT Bip001_R_Forearm
              {
                OFFSET -25.9523 0.0806822 -2.15589
                CHANNELS 3 Zrotation Xrotation Yrotation
                JOINT Bip001_R_Hand
                {
                  OFFSET -32.2475 0.153859 1.63989
                  CHANNELS 3 Zrotation Xrotation Yrotation
                  JOINT Bip001_R_Finger0
                  {
                    OFFSET -6.04641 -2.20976 5.90317
                    CHANNELS 3 Zrotation Xrotation Yrotation
                    End Site
                    {
                      OFFSET -4.22376 -1.43895 0.60647
                    }
                  }
                  JOINT Bip001_R_Finger1
                  {
                    OFFSET -11.0826 -0.704794 -0.198182
                    CHANNELS 3 Zrotation Xrotation Yrotation
                    End Site
                    {
                      OFFSET -6.20028 -0.397504 -0.0787333
                    }
                  }
                }
              }
            }
          }
          JOINT Bip001_Head
          {
            OFFSET 1.09673e-005 11.2744 2.05948
            CHANNELS 3 Zrotation Xrotation Yrotation
            End Site
            {
              OFFSET 2.89576e-005 20.8808 -2.77728e-005
            }
          }
        }
      }
    }
  }
}
MOTION
Frames:	13
Frame Time:	0.04
31.923 95.8596 -30.8391 0.535499 -1.80898 -6.07446 0.0784865 2.4671 -0.30152 4.89948 1.25771 14.8257 0.880959 4.53526 0.732009 -0.921728 -3.37315 0.0258413 0.659826 -4.17333 0.00415725 -5.16686 -4.18373 0.548623 0.601927 10.8461 0.0664831 -3.7798 -9.15737 5.20179 2.0947 -7.22534 2.31784 0.178109 4.9289 -0.608394 0.180459 4.92891 -0.608489 3.25504 -3.34449 -0.262021 -26.0363 5.93286 -5.26896 -43.8564 35.2484 -7.54143 12.066 -10.5778 -34.8441 13.6187 -0.869788 -7.29504 -3.18055e-015 4.77083e-015 6.36111e-015 -3.18055e-015 7.95139e-015 3.18055e-015 22.2055 11.0012 19.9121 64.6787 42.3864 -16.3601 -20.952 7.45421 10.811 9.24999 -7.6047 2.45175 3.97569e-016 -3.18055e-015 3.97569e-016 3.97569e-016 -9.54167e-015 -0 -3.49713 5.54847 1.54941 
32.0015 95.8515 -30.7985 0.58448 -1.91969 -6.02158 0.0807037 2.46708 -0.353028 4.74089 1.38597 14.4874 0.867137 4.42173 1.15242 -0.306057 -2.91786 0.02583 1.09068 -4.68556 -0.415222 -5.24627 -4.16338 0.462878 0.530539 11.0747 0.186529 -3.86088 -9.24979 5.20405 2.11461 -7.29134 2.32527 0.175885 4.9337 -0.710257 0.177108 4.93369 -0.71039 3.14557 -3.14897 -0.0820928 -26.1083 5.7794 -5.25566 -44.8599 36.2656 -6.13033 12.439 -9.14579 -35.2706 12.8587 -0.574853 -7.25541 1.27222e-014 4.77083e-015 -6.36111e-015 6.36111e-015 3.18056e-015 -0 22.3134 10.508 19.0849 65.659 37.9632 -16.1421 -20.2097 9.90137 9.80188 8.45139 -7.21584 2.05974 4.41391e-032 -6.36111e-015 3.97569e-016 1.76556e-031 -6.36111e-015 1.59028e-015 -3.57652 5.13647 1.70845 
32.0509 95.8471 -30.7995 0.46288 -1.78633 -5.77145 0.110933 2.43031 -0.484925 4.83555 1.05464 14.0934 0.920436 4.81874 1.45111 -0.20273 -3.00044 0.0258319 1.0828 -4.68224 -0.416706 -5.14539 -4.16984 0.55522 0.548845 10.9736 0.162893 -3.97628 -9.15233 5.02594 2.14589 -7.37394 2.33911 0.242794 4.85956 -0.975886 0.242793 4.85957 -0.975883 3.32967 -2.67996 0.116337 -26.5148 5.37761 -5.33712 -46.0174 38.1412 -4.17843 13.6376 -6.70129 -35.102 11.7233 -0.158709 -7.24777 9.54166e-015 -1.11319e-014 -9.54166e-015 9.54166e-015 -1.43125e-014 -9.54166e-015 22.2573 9.62021 17.8299 66.0195 34.0896 -15.8661 -19.7657 11.6242 9.78336 8.10138 -6.67061 1.90747 1.59028e-015 3.18055e-015 -1.98785e-015 1.59028e-015 3.18056e-015 -2.78299e-015 -3.99599 4.60791 2.05741 
32.0804 95.8364 -30.6967 0.383735 -1.86111 -5.75474 0.134543 2.45864 -0.640781 4.86928 1.14055 14.2268 0.904589 4.90712 1.45876 -0.0671765 -3.03814 0.0258328 1.17412 -4.77416 -0.49309 -5.07852 -4.08432 0.672915 0.495839 11.0171 0.19461 -4.02411 -9.16795 5.02732 2.15758 -7.41186 2.34091 0.294558 4.91563 -1.28911 0.296106 4.91564 -1.28914 3.52036 -2.18894 0.455783 -26.8231 4.98615 -5.45833 -47.6009 40.5919 -1.90114 15.7626 -3.6235 -34.2976 9.94749 0.340628 -6.84805 -9.54166e-015 -4.77083e-015 1.59028e-015 -6.36111e-015 -4.77083e-015 1.59028e-015 22.065 8.67685 16.6019 66.1641 31.4489 -15.4513 -20.1972 12.1777 10.349 9.3619 -6.49079 2.96483 -8.82781e-032 6.36111e-015 7.95139e-016 7.95139e-016 9.54167e-015 7.95139e-016 -4.40098 4.08682 2.54091 
32.095 95.8282 -30.5951 0.333968 -2.067 -5.88929 0.143019 2.52285 -0.817955 4.87911 1.34271 14.3293 0.881361 5.03359 1.62993 -0.162422 -3.21346 0.0258371 1.0749 -4.63532 -0.422154 -5.05036 -3.97146 1.07805 0.501287 11.1227 0.209637 -4.11888 -9.20937 4.93483 2.17874 -7.4708 2.35668 0.325268 5.04341 -1.64448 0.325112 5.04342 -1.64473 3.68299 -1.69941 0.887647 -26.8943 4.63796 -5.72078 -49.7627 43.129 0.332198 17.813 -0.574658 -32.6568 7.57712 0.717068 -6.31815 -1.76556e-031 -6.36111e-015 -1.59028e-015 -3.18055e-015 -3.18056e-015 -3.18055e-015 22.1083 7.88239 15.7154 65.7866 29.025 -15.0541 -21.2459 11.5068 11.5636 10.3408 -6.53527 3.84545 7.95139e-016 9.54166e-015 -7.95139e-016 7.95139e-016 9.54167e-015 -0 -4.71186 3.63053 3.08352 
32.0975 95.817 -30.5245 0.233111 -2.11971 -6.09424 0.166968 2.55189 -0.982954 4.97513 1.43145 14.04 0.768365 5.16398 2.33573 -0.2275 -3.41644 0.0258424 1.10366 -4.60617 -0.414234 -4.97186 -3.90444 1.51264 0.528667 11.0334 0.219571 -4.18886 -9.18559 4.88409 2.19442 -7.50885 2.37115 0.377696 5.10054 -1.97636 0.376226 5.10054 -1.9762 3.76233 -1.28619 1.3119 -26.9343 4.37883 -6.00599 -52.0108 45.5259 2.78948 19.0499 2.30687 -30.7408 6.25464 1.11452 -5.53046 3.18055e-015 -3.18055e-015 -0 3.18055e-015 -3.18056e-015 -7.95139e-016 22.3682 7.22348 14.9528 65.0123 26.9099 -14.6407 -22.2687 10.7687 13.2964 10.4122 -6.75055 4.6049 -7.95139e-016 3.18055e-015 -7.95139e-016 -3.97569e-016 0 7.95139e-016 -4.94554 3.26613 3.5778 
32.0474 95.8035 -30.4754 -0.223401 -2.0564 -6.48171 0.267096 2.58351 -1.10158 5.50876 1.17559 14.7965 0.6119 5.96859 1.96437 0.0130844 -3.78762 0.025853 1.10081 -4.64795 -0.411139 -4.52108 -3.75324 2.13083 0.469006 10.516 0.222069 -4.2484 -8.90085 4.77557 2.20393 -7.53646 2.36892 0.585493 5.1613 -2.21859 0.584806 5.16142 -2.21861 3.68662 -1.11765 1.77446 -26.7209 4.34435 -6.22827 -54.2861 47.396 4.81896 18.6653 2.93906 -28.3963 4.10682 1.34086 -4.9038 6.36111e-015 0 -7.95139e-016 3.18055e-015 -1.59028e-015 -1.19271e-015 22.691 6.83744 14.3307 64.2555 25.3475 -14.2938 -23.4594 9.96549 15.2995 8.90568 -7.01304 4.99272 1.98785e-016 0 -6.21202e-018 3.23025e-016 0 -4.34841e-017 -4.99814 3.04151 4.01713 
32.1088 95.7807 -30.4742 -0.345623 -1.9062 -6.72881 0.298438 2.5899 -1.20907 5.64147 0.790275 15.9728 0.725807 6.64845 1.12851 -0.0970371 -4.21282 0.0258664 1.00939 -4.54629 -0.361962 -4.42749 -4.03808 2.38121 0.443616 10.6718 0.260937 -4.25022 -8.87205 4.81132 2.23459 -7.64033 2.41189 0.652479 5.17125 -2.43548 0.652497 5.17125 -2.43541 3.61218 -0.913572 2.13176 -26.5537 4.31212 -6.64078 -56.5343 47.8856 6.79177 17.9025 2.70846 -26.0575 2.27562 1.34445 -3.88034 2.20695e-032 -1.59028e-015 7.95139e-016 0 1.59028e-015 -0 22.8561 6.47187 13.9388 63.6959 24.8611 -13.8189 -24.5511 8.79817 16.986 6.03932 -7.31081 4.63988 -1.59028e-015 -3.18055e-015 -1.19271e-015 -1.19271e-015 -3.18056e-015 -3.97569e-016 -5.06159 2.68602 4.35386 
32.2021 95.7766 -30.4413 -0.429049 -1.764 -7.13695 0.307135 2.59902 -1.24502 5.65803 0.71648 14.6083 0.487564 6.70135 3.00572 0.26245 -4.11817 0.0258633 1.17001 -4.70734 -0.504942 -4.37614 -4.25706 2.8102 0.444026 10.6735 0.264294 -4.27573 -8.78333 4.81175 2.24964 -7.70357 2.44948 0.672796 5.19697 -2.50578 0.672495 5.19696 -2.50688 3.36617 -0.800461 2.56579 -26.0519 4.30117 -6.84643 -58.4122 47.3373 8.14881 16.6826 1.27319 -23.8017 1.72436 1.50788 -3.60763 -1.59028e-015 1.59028e-015 -3.97569e-016 -1.59028e-015 0 -3.97569e-016 23.2406 6.21689 13.6222 63.005 24.0094 -13.6979 -26.7557 9.26808 19.5905 3.22501 -7.16021 4.06713 3.18055e-015 0 -1.59028e-015 1.59028e-015 0 -3.18055e-015 -4.97555 2.42372 4.67837 
32.3477 95.7502 -30.3768 -0.331633 -1.63052 -7.42306 0.280338 2.59814 -1.2558 5.53675 0.541284 14.6034 0.435036 6.99103 3.30644 0.155154 -4.4347 0.025874 1.05068 -4.53663 -0.399778 -4.52744 -4.56854 2.96468 0.458563 10.9523 0.34785 -4.2992 -8.89687 4.84849 2.27714 -7.78075 2.46674 0.618903 5.19765 -2.52829 0.618905 5.19767 -2.52829 2.91427 -0.697399 3.05853 -25.3591 4.23471 -6.87402 -59.5976 45.9012 8.84747 15.8392 0.0720393 -22.3385 1.56925 1.74007 -2.34759 -1.59028e-015 0 -0 -3.18055e-015 0 7.95139e-016 23.8021 5.92323 13.243 62.0303 21.2339 -13.8174 -30.9615 11.7565 23.479 2.38655 -6.68458 4.76587 0 3.18055e-015 -0 3.18055e-015 0 1.59028e-015 -4.69451 2.30051 4.96043 
32.4945 95.7382 -30.2831 -0.229918 -1.46991 -7.39598 0.249752 2.59754 -1.27244 5.42707 0.373225 14.3415 0.326885 7.08962 3.56969 0.398905 -4.44894 0.0197686 1.08138 -4.56351 -0.430227 -4.67411 -4.64539 2.94326 0.462427 10.8845 0.351889 -4.34003 -8.9334 4.8276 2.2976 -7.84396 2.48866 0.557695 5.1844 -2.56012 0.557919 5.1844 -2.5605 2.52448 -0.570274 3.53517 -24.8154 4.12644 -6.82191 -59.9761 43.9953 9.09929 15.1964 -1.06889 -21.5629 2.03702 1.70685 -1.57219 3.18055e-015 3.18055e-015 -0 3.18055e-015 3.18056e-015 7.95139e-016 24.3619 5.6409 12.9488 60.4162 16.075 -14.2796 -35.6 12.5456 28.7437 2.57211 -5.83653 6.4828 -0 -9.54166e-015 -0 1.59028e-015 -9.54167e-015 -0 -4.3927 2.17068 5.23951 
32.6066 95.7258 -30.1564 -0.282481 -1.44138 -7.12453 0.234022 2.59627 -1.2528 5.5958 0.206543 13.9448 0.0571473 7.48539 3.73537 0.552368 -4.71563 0.0192057 1.05819 -4.4743 -0.415241 -4.65805 -4.50779 2.38924 0.320623 10.819 0.397215 -4.28006 -8.94881 5.03659 2.34974 -7.99967 2.53473 0.526554 5.18673 -2.51971 0.526141 5.18676 -2.51995 2.14812 -0.420626 4.01012 -24.1699 4.01049 -6.90415 -59.8643 42.3039 9.08439 14.6906 -2.01396 -21.4952 2.93232 1.67633 -1.5369 -1.59028e-015 3.18055e-015 -2.38542e-015 -1.59028e-015 3.18056e-015 -1.59028e-015 24.9068 5.25681 12.4616 58.3968 10.0993 -15.0195 -40.1309 12.0674 35.2386 -0.2596 -5.93769 6.92468 6.36111e-015 9.54166e-015 3.18055e-015 7.95139e-015 1.27222e-014 3.18055e-015 -3.99963 2.02629 5.4996 
32.6532 95.7204 -30.054 -0.646298 -1.24043 -6.66102 0.27992 2.55339 -1.20841 6.36695 -0.45737 14.1124 -0.272945 8.89999 3.35014 -1.21388 -6.63177 0.0292611 0.197458 -3.12641 0.27821 -4.29562 -4.07583 2.2807 0.23233 10.0209 0.322076 -4.38696 -8.60714 4.75523 2.4109 -8.19184 2.60378 0.613852 5.10031 -2.43305 0.614247 5.1003 -2.43295 1.8804 -0.244856 4.39608 -23.8721 3.88261 -6.97257 -59.234 41.1196 9.00382 14.4418 -2.55715 -22.0289 3.75751 1.31075 -1.64144 -3.18055e-015 0 1.59028e-015 1.59028e-015 -3.18056e-015 1.59028e-015 25.0106 4.86636 12.1046 55.7921 1.21294 -16.0168 -46.1895 12.7352 44.3021 -5.22073 -6.70381 6.4908 1.59028e-015 3.18055e-015 3.18055e-015 1.59028e-015 3.18056e-015 3.18055e-015 -3.88248 1.87803 5.77161 
